<?xml version="1.0" encoding="utf-8"?>
<!-- Generator: Adobe Illustrator 19.2.1, SVG Export Plug-In . SVG Version: 6.00 Build 0)  -->
<svg version="1.1" id="layer" xmlns="http://www.w3.org/2000/svg" xmlns:xlink="http://www.w3.org/1999/xlink" x="0px" y="0px"
	 viewBox="0 0 652 652" style="enable-background:new 0 0 652 652;" xml:space="preserve">
<style type="text/css">
	.st0{fill:#004E2B;}
	.st1{fill:#EC7000;}
	.st2{fill:none;stroke:#004E2B;stroke-width:3.1649;}
</style>
<g>
	<g>
		<path class="st0" d="M154.9,349.1l0-69.9h42.1c0,0-0.1,78.1-0.1,80.9c0,15.3-42.1,21.5-81.9,21.5c0-1.9,0-6.7,0-9.7
			C135.1,371.9,154.9,367.7,154.9,349.1"/>
		<path class="st1" d="M68.6,349.1l0-69.9H26.5c0,0,0,78.1,0,80.9c0,15.3,42.1,21.5,81.9,21.5c0-1.9,0-6.7,0-9.7
			C88.5,371.9,68.6,367.7,68.6,349.1"/>
	</g>
	<g>
		<line class="st2" x1="230.4" y1="251.1" x2="230.4" y2="400.7"/>
	</g>
	<g>
		<path class="st0" d="M274.8,279.4v2.7h-3c-2.3,0-3,0.6-3,2.7v23c0,7.2,3.6,10.5,11.4,10.5c5.1,0,8.5-1.8,10.1-5.3
			c0.7-1.6,0.9-4.2,0.9-7.9v-18c0-3.5-0.7-5.1-4.1-5.1h-2.5v-2.7h15.7v2.7h-2.1c-3.2,0-4.2,1.5-4.2,5.1v18.2
			c0,11.2-4.1,16.1-15.8,16.1c-10.3,0-15.6-4.6-15.6-13.7v-23c0-2.2-0.6-2.7-3-2.7h-3.3v-2.7H274.8z"/>
		<path class="st0" d="M302.9,318.1c5.2-0.4,6.1-2.2,6.1-7.3v-26.9c-0.9-1.5-2.4-1.9-5.1-1.9h-1v-2.6H314l22.7,31.1v-21.3
			c0-5.5-1.1-7.2-6.8-7.3v-2.5h15.9v2.5c-5.1,0.2-6.2,2.1-6.2,7.3v32.4h-2.3L311.9,287v23.8c0,5.4,1.2,7.3,6.8,7.3v2.5h-15.8V318.1z
			"/>
		<path class="st0" d="M349.6,317.9h3.1c2.3,0,3.1-0.6,3.1-2.7v-30.3c0-2.2-0.7-2.7-3.1-2.7h-3.1v-2.7h18.6v2.7h-3.1
			c-2.3,0-3,0.6-3,2.7v30.3c0,2.2,0.7,2.7,3,2.7h3.1v2.7h-18.6V317.9z"/>
		<path class="st0" d="M389.5,321.6l-14.4-37c-0.9-2.2-1.3-2.5-4.1-2.5h-1.3v-2.7h17.5v2.7h-2.1c-2.3,0-3.4,0.2-3.4,1.5
			c0,0.4,0.1,1.1,0.5,2l10.1,25.8l8.9-23c0.5-1.4,0.7-2.5,0.7-3.2c0-2.1-1.3-3-4.1-3h-1.6v-2.7h14.9v2.7h-0.4
			c-3.3,0-4.4,1.4-5.8,4.8l-13.2,34.7H389.5z"/>
		<path class="st0" d="M412.2,317.9h3c2.3,0,3-0.5,3-2.7v-30.3c0-2.2-0.7-2.7-3-2.7h-3v-2.7h33.3l0.7,14.5h-2.5
			c-0.7-5-2.2-8.3-4-9.9c-2-1.7-5.4-2.1-10.6-2.1c-3.8,0-4.8,0.2-4.8,2.9v13.1h0.8c5.9,0,8.1-1.9,8.6-7.9h2.4v18.1h-2.4
			c-0.5-5.9-2.7-7.8-8.6-7.8h-0.8v14.8c0,2.8,1.3,2.9,5.3,2.9c4.8,0,8.2-0.3,10.5-1.5c2.6-1.3,4.2-5.1,5.4-11.6h2.2l-0.9,15.6h-34.7
			V317.9z"/>
		<path class="st0" d="M451.8,317.9h3c2.3,0,3-0.5,3-2.7v-30.3c0-2.2-0.7-2.7-3-2.7h-3v-2.7h22.8c6.9,0,11.5,4,11.5,10.1
			c0,6-4.2,9.3-12.6,10.3c4.6,0.6,7,2.9,8,7.4l1.5,6.4c0.6,2.5,1.3,3.8,2.6,3.8c1.5,0,2.2-1.9,2.3-6h2.2c0,0.5,0.1,0.9,0.1,1.3
			c0,5.8-2.6,8.9-6.9,8.9c-4.5,0-6.2-2.5-6.8-8l-0.6-5.7c-0.6-5.5-3.4-7.2-8.8-7.2H464v14.5c0,2.2,0.7,2.7,3,2.7h3.5v2.7h-18.7
			V317.9z M464,297.9l2.8,0.1c0.7,0.1,1.3,0.1,1.9,0.1c7.6,0,10.9-2.3,10.9-8.2c0-5.8-2.7-7.9-9.1-7.9h-3.7c-2.4,0-2.9,0.6-2.9,2.5
			V297.9z"/>
		<path class="st0" d="M495.2,321.2h-2l-0.3-16.5h2.3c1.7,9.4,6.5,14.3,13.8,14.3c6.2,0,9.6-3.1,9.6-8.1c0-2.4-0.9-4.3-2.5-5.4
			c-2-1.4-5.2-2-9.3-3.1c-9.1-2.5-13.5-4.7-13.5-12.3c0-7.1,4.7-11.6,12.1-11.6c4.2,0,7.8,1.4,10.7,4l2.2-3.4h2.1l0.6,14.8h-2.2
			c-2.2-8.5-6.7-12.8-13.4-12.8c-5,0-7.9,2.5-7.9,6.9c0,5.5,4.3,6.1,11.9,8c4.1,1,7.5,1.9,10.1,4.3c2.2,2.1,3.5,5.1,3.5,8.8
			c0,7.9-5,12.6-14.1,12.6c-4.4,0-8.6-1.6-11.3-4.3L495.2,321.2z"/>
		<path class="st0" d="M526.8,317.9h3.1c2.3,0,3.1-0.6,3.1-2.7v-30.3c0-2.2-0.7-2.7-3.1-2.7h-3.1v-2.7h18.6v2.7h-3.1
			c-2.3,0-3,0.6-3,2.7v30.3c0,2.2,0.7,2.7,3,2.7h3.1v2.7h-18.6V317.9z"/>
		<path class="st0" d="M573.4,317.9h3.6v2.7h-19.5v-2.7h3.6c2.3,0,3-0.5,3-2.7v-30.5c0-3-0.9-3-3.8-3c-5.5,0-7.6,4.1-8.9,13.6h-2.2
			l0.8-15.8h34.2l0.9,15.8h-2.2c-1.5-10.5-3.5-13.6-10-13.6c-2.1,0-2.6,0.7-2.6,3v30.5C570.4,317.3,571.1,317.9,573.4,317.9"/>
		<path class="st0" d="M613.1,317.9h3.5v2.7h-19.3v-2.7h3.6c2.2,0,3-0.6,3-2.7v-11.6l-11.5-18.3c-1.4-2.2-2-3.1-4.7-3.1h-1.1v-2.7
			h17.6v2.7h-2.3c-1.9,0-3,0.3-3,1.3c0,0.6,0.3,1.1,0.9,2l9.1,14.3l7.5-13c0.5-0.8,0.7-1.5,0.7-2.2c0-1.6-1.3-2.4-3.9-2.4h-1.6v-2.7
			h15v2.7h-1.1c-2.6,0-3.4,0.9-4.7,3.1l-10.5,18v11.9C610.1,317.3,610.8,317.9,613.1,317.9"/>
		<path class="st1" d="M266.2,344.4c3.6-4.2,8.6-6.3,14.3-6.3c5.8,0,10.4,2.1,14.1,6.3c3.6,4,5.4,9.2,5.4,15.3
			c0,6.1-1.5,10.8-5,14.9c-3.8,4.4-8.6,6.6-14.5,6.6c-5.9,0-10.7-2.1-14.5-6.6c-3.5-4.1-5.1-8.9-5.1-14.9
			C260.9,353.6,262.7,348.4,266.2,344.4 M280.5,378.7c8.2,0,12.2-6.3,12.2-19c0-12.8-3.8-19-12.2-19c-8.3,0-12.2,6.2-12.2,19
			C268.3,372.4,272.1,378.7,280.5,378.7"/>
		<path class="st1" d="M300.5,377.6h3c2.3,0,3-0.5,3-2.7v-30.3c0-2.2-0.7-2.7-3-2.7h-3v-2.7h33.3l0.7,14.5h-2.5
			c-0.7-5-2.2-8.3-4-9.9c-2-1.7-5.4-2.1-10.6-2.1c-3.8,0-4.8,0.2-4.8,2.9v13h0.8c5.9,0,8.1-1.9,8.6-7.9h2.4v18.1h-2.4
			c-0.5-5.9-2.7-7.8-8.6-7.8h-0.8v14.8c0,2.2,0.7,2.7,3,2.7h3.8v2.7h-18.9V377.6z"/>
		<path class="st1" d="M362.4,370.6c0,5.4,1.2,7.2,6.8,7.3v2.5h-16.5v-2.5c5.8-0.1,6.8-1.9,6.8-7.3v-26c0-2.2-0.7-2.7-3-2.7h-3.4
			v-2.7h14.3l11.1,31.5l10.7-31.5H403v2.7h-3c-2.3,0-3,0.5-3,2.7v30.3c0,2.2,0.7,2.7,3,2.7h3v2.7h-18.5v-2.7h3.4c2.3,0,3-0.5,3-2.7
			v-32.1l-12.8,37.5H376l-13.6-37.5V370.6z"/>
		<path class="st1" d="M407.3,377.6h3.1c2.3,0,3.1-0.6,3.1-2.7v-30.3c0-2.2-0.7-2.7-3.1-2.7h-3.1v-2.7h18.6v2.7h-3.1
			c-2.3,0-3,0.6-3,2.7v30.3c0,2.2,0.7,2.7,3,2.7h3.1v2.7h-18.6V377.6z"/>
		<path class="st1" d="M447.3,338.5l14.5,36.3c0.9,2.2,1.6,3,3.9,3c0.3,0,0.7,0,1.1,0v2.6h-17v-2.7h2.2c2.4,0,3.5-0.2,3.5-1.5
			c0-0.5-0.2-1.1-0.5-2l-2.6-7.2h-15.3l-1.8,4.4c-0.5,1.3-0.8,2.7-0.8,3.4c0,1.8,1.4,2.8,4.2,2.8h1.4v2.7h-14.7v-2.7h0.5
			c3.4,0,4.5-1.4,5.9-4.8l13.4-34.3H447.3z M444.6,347.5l-6.5,16.5h13.3L444.6,347.5z"/>
		<path class="st1" d="M475.7,370.6c0,5.4,1.2,7.2,6.8,7.3v2.5h-16.5v-2.5c5.8-0.1,6.8-1.8,6.8-7.2v-26c0-2.2-0.7-2.7-3-2.7h-3.4
			v-2.7h14.3l11.1,31.5l10.7-31.5h13.9v2.7h-3c-2.3,0-3,0.5-3,2.7v30.3c0,2.2,0.7,2.7,3,2.7h3v2.7h-18.5v-2.7h3.4c2.3,0,3-0.5,3-2.7
			v-32.1l-12.8,37.5h-2.2l-13.6-37.5V370.6z"/>
		<path class="st1" d="M520.6,377.6h3.1c2.3,0,3.1-0.6,3.1-2.7v-30.3c0-2.2-0.7-2.7-3.1-2.7h-3.1v-2.7h18.6v2.7h-3.1
			c-2.3,0-3,0.6-3,2.7v30.3c0,2.2,0.7,2.7,3,2.7h3.1v2.7h-18.6V377.6z"/>
	</g>
</g>
</svg>
